<svg xmlns="http://www.w3.org/2000/svg" width="38" height="39" viewBox="0 0 35 35" fill="none">
  <g>
    <g>
      <path d="M33.9943 16.7824C33.9943 25.2409 27.1374 32.0978 18.679 32.0978C10.2206 32.0978 3.36364 25.2409 3.36364 16.7824C3.36364 8.32408 10.2206 1.46715 18.679 1.46715C27.1374 1.46715 33.9943 8.32408 33.9943 16.7824Z" fill="url(#paint0_linear_671_18450)" stroke="#353941" stroke-width="0.727273"/>
      <path d="M18.6737 8.30658C19.6661 8.30658 20.4706 7.50212 20.4706 6.50974C20.4706 5.51737 19.6661 4.71289 18.6737 4.71289C17.6813 4.71289 16.8768 5.51737 16.8768 6.50974C16.8768 7.50212 17.6813 8.30658 18.6737 8.30658Z" fill="white"/>
      <path d="M26.1298 25.9959C24.3734 23.6089 23.0104 21.6838 22.0408 20.2207C21.1692 18.9299 20.4554 17.5395 19.9147 16.0789V10.1641H19.7777C19.4261 10.3357 19.04 10.4249 18.6487 10.4249C18.2575 10.4249 17.8714 10.3357 17.5197 10.1641H17.4855V16.5322C17.4855 19.7341 17.0385 22.0369 16.1444 23.4402C15.7491 24.1053 15.1822 24.6519 14.5032 25.0226C13.8241 25.3935 13.0579 25.5749 12.2847 25.548C11.5205 25.5686 10.7583 25.4618 10.0293 25.2318V27.4239C10.3454 27.551 10.6739 27.6446 11.0094 27.7032C11.4841 27.7965 11.9668 27.8424 12.4506 27.8402C14.5215 27.8402 16.1462 27.1788 17.3248 25.8562C18.5033 24.5337 19.2771 22.6437 19.6459 20.1864C20.6998 22.18 22.2807 24.639 24.3884 27.5635H27.2865L26.1298 25.9959Z" fill="white"/>
    </g>
  </g>
  <defs>
    <filter id="filter0_d_671_18450" x="1.54545" y="0.272727" width="34.9091" height="34.9091" filterUnits="userSpaceOnUse" color-interpolation-filters="sRGB">
      <feFlood flood-opacity="0" result="BackgroundImageFix"/>
      <feColorMatrix in="SourceAlpha" type="matrix" values="0 0 0 0 0 0 0 0 0 0 0 0 0 0 0 0 0 0 127 0" result="hardAlpha"/>
      <feOffset dy="0.727273"/>
      <feGaussianBlur stdDeviation="0.727273"/>
      <feComposite in2="hardAlpha" operator="out"/>
      <feColorMatrix type="matrix" values="0 0 0 0 0.0117647 0 0 0 0 0.027451 0 0 0 0 0.0705882 0 0 0 0.4 0"/>
      <feBlend mode="normal" in2="BackgroundImageFix" result="effect1_dropShadow_671_18450"/>
      <feBlend mode="normal" in="SourceGraphic" in2="effect1_dropShadow_671_18450" result="shape"/>
    </filter>
    <filter id="filter1_d_671_18450" x="0.090909" y="1.10352" width="37.1761" height="37.1761" filterUnits="userSpaceOnUse" color-interpolation-filters="sRGB">
      <feFlood flood-opacity="0" result="BackgroundImageFix"/>
      <feColorMatrix in="SourceAlpha" type="matrix" values="0 0 0 0 0 0 0 0 0 0 0 0 0 0 0 0 0 0 127 0" result="hardAlpha"/>
      <feOffset dy="2.90909"/>
      <feGaussianBlur stdDeviation="1.45455"/>
      <feComposite in2="hardAlpha" operator="out"/>
      <feColorMatrix type="matrix" values="0 0 0 0 0 0 0 0 0 0 0 0 0 0 0 0 0 0 0.25 0"/>
      <feBlend mode="normal" in2="BackgroundImageFix" result="effect1_dropShadow_671_18450"/>
      <feBlend mode="normal" in="SourceGraphic" in2="effect1_dropShadow_671_18450" result="shape"/>
    </filter>
    <linearGradient id="paint0_linear_671_18450" x1="18.679" y1="1.10352" x2="18.679" y2="32.4615" gradientUnits="userSpaceOnUse">
      <stop stop-color="#2B2E38"/>
      <stop offset="1" stop-color="#040813"/>
    </linearGradient>
  </defs>
</svg>